#tb 0: 1/5
#media_type 0: video
#codec_id 0: rawvideo
#dimensions 0: 200x200
#sar 0: 1/1
0,          0,          0,        1,   160000, 0xe2b9de94
0,          1,          1,        1,   160000, 0xe2b9de94
0,          2,          2,        1,   160000, 0xe2b9de94
0,          3,          3,        1,   160000, 0xe2b9de94
0,          4,          4,        1,   160000, 0xe2b9de94
